<?xml version="1.0" encoding="UTF-8"?>
<svg width="317px" height="100px" viewBox="0 0 317 100" version="1.1" xmlns="http://www.w3.org/2000/svg" xmlns:xlink="http://www.w3.org/1999/xlink">
    <!-- Generator: Sketch 58 (84663) - https://sketch.com -->
    <title>Footer</title>
    <desc>Created with Sketch.</desc>
    <g id="Footer" stroke="none" stroke-width="1" fill="none" fill-rule="evenodd">
        <g id="Group" transform="translate(0.000000, 18.000000)">
            <path d="M26.6906248,5.62764858 C25.5285303,5.62764858 24.5805723,6.57560662 24.5805723,7.73770115 L24.5805723,24.2984321 C24.5805723,24.6802415 24.265933,24.997911 23.8810934,24.997911 C23.4876681,24.997911 23.1715137,24.6802415 23.1715137,24.2984321 L23.1715137,3.51961617 C23.1715137,2.35045109 22.2301212,1.40905856 21.0619662,1.40905856 C19.8998716,1.40905856 18.9534287,2.34994605 18.9534287,3.51961617 L18.9534287,22.8878584 C18.9534287,23.2747182 18.6352542,23.5873373 18.2524347,23.5873373 C17.8610296,23.5873373 17.542855,23.2747182 17.542855,22.8878584 L17.542855,2.10853745 C17.542855,0.946442919 16.6014625,-1.42108547e-14 15.4322974,-1.42108547e-14 C14.2646475,-1.42108547e-14 13.3232549,0.946442919 13.3232549,2.10853745 L13.3232549,22.8878584 C13.3232549,23.2747182 13.0065955,23.5873373 12.6146854,23.5873373 C12.2318659,23.5873373 11.9147014,23.2747182 11.9147014,22.8878584 L11.9147014,4.92816969 C11.9147014,3.75950965 10.9662383,2.81811712 9.80515389,2.81811712 C8.63750393,2.81811712 7.6961114,3.75900461 7.6961114,4.92816969 L7.6961114,29.9255756 L4.84264155,26.0206148 C3.99771145,24.7236748 2.34825437,24.283786 1.13868618,25.0342738 C-0.0648215448,25.7938523 -0.359764269,27.4579555 0.472539856,28.7569156 C0.472539856,28.7569156 5.06940402,35.7118064 7.02946004,38.6880007 C8.06229352,40.2608274 8.65923155,41.7931832 9.80515389,44.7931832 C10.5691021,46.7931832 13.0286836,47.4805201 17.1838983,46.855194 C22.1150143,48.6170548 24.5805723,48.6170548 24.5805723,46.855194 C24.5805723,45.8510306 25.4669481,45.5004368 26.6906248,41.8210127 C27.9143016,38.1415886 28.8078396,34.9741207 28.8078396,34.1446707 L28.8078396,7.73770115 C28.808253,6.57560662 27.8587798,5.62764858 26.6906248,5.62764858 Z" id="Path" fill="#825036" fill-rule="nonzero"></path>
            <polygon id="Rectangle" fill="#FFFFFF" points="8.00001485 44.7931832 26.3677818 45.0836247 26.0000148 50.7931832 8.00001485 50.7931832"></polygon>
            <rect id="Rectangle" fill="#5B1547" x="5.80776301" y="50.7931832" width="23" height="31"></rect>
        </g>
        <g id="Group-Copy" transform="translate(32.000000, 0.000000)">
            <path d="M26.6906248,5.62764858 C25.5285303,5.62764858 24.5805723,6.57560662 24.5805723,7.73770115 L24.5805723,24.2984321 C24.5805723,24.6802415 24.265933,24.997911 23.8810934,24.997911 C23.4876681,24.997911 23.1715137,24.6802415 23.1715137,24.2984321 L23.1715137,3.51961617 C23.1715137,2.35045109 22.2301212,1.40905856 21.0619662,1.40905856 C19.8998716,1.40905856 18.9534287,2.34994605 18.9534287,3.51961617 L18.9534287,22.8878584 C18.9534287,23.2747182 18.6352542,23.5873373 18.2524347,23.5873373 C17.8610296,23.5873373 17.542855,23.2747182 17.542855,22.8878584 L17.542855,2.10853745 C17.542855,0.946442919 16.6014625,-1.42108547e-14 15.4322974,-1.42108547e-14 C14.2646475,-1.42108547e-14 13.3232549,0.946442919 13.3232549,2.10853745 L13.3232549,22.8878584 C13.3232549,23.2747182 13.0065955,23.5873373 12.6146854,23.5873373 C12.2318659,23.5873373 11.9147014,23.2747182 11.9147014,22.8878584 L11.9147014,4.92816969 C11.9147014,3.75950965 10.9662383,2.81811712 9.80515389,2.81811712 C8.63750393,2.81811712 7.6961114,3.75900461 7.6961114,4.92816969 L7.6961114,29.9255756 L4.84264155,26.0206148 C3.99771145,24.7236748 2.34825437,24.283786 1.13868618,25.0342738 C-0.0648215448,25.7938523 -0.359764269,27.4579555 0.472539856,28.7569156 C0.472539856,28.7569156 5.06940402,35.7118064 7.02946004,38.6880007 C8.06229352,40.2608274 8.65923155,41.7931832 9.80515389,44.7931832 C10.5691021,46.7931832 13.0286836,47.4805201 17.1838983,46.855194 C22.1150143,48.6170548 24.5805723,48.6170548 24.5805723,46.855194 C24.5805723,45.8510306 25.4669481,45.5004368 26.6906248,41.8210127 C27.9143016,38.1415886 28.8078396,34.9741207 28.8078396,34.1446707 L28.8078396,7.73770115 C28.808253,6.57560662 27.8587798,5.62764858 26.6906248,5.62764858 Z" id="Path" fill="#F3C6A5" fill-rule="nonzero"></path>
            <polygon id="Rectangle" fill="#FFFFFF" points="8.00001485 44.7931832 26.3677818 45.0836247 26.0000148 50.7931832 8.00001485 50.7931832"></polygon>
            <rect id="Rectangle" fill="#92063E" x="5.80776301" y="50.7931832" width="23" height="49"></rect>
        </g>
        <g id="Group-Copy-2" transform="translate(64.000000, 18.000000)">
            <path d="M26.6906248,5.62764858 C25.5285303,5.62764858 24.5805723,6.57560662 24.5805723,7.73770115 L24.5805723,24.2984321 C24.5805723,24.6802415 24.265933,24.997911 23.8810934,24.997911 C23.4876681,24.997911 23.1715137,24.6802415 23.1715137,24.2984321 L23.1715137,3.51961617 C23.1715137,2.35045109 22.2301212,1.40905856 21.0619662,1.40905856 C19.8998716,1.40905856 18.9534287,2.34994605 18.9534287,3.51961617 L18.9534287,22.8878584 C18.9534287,23.2747182 18.6352542,23.5873373 18.2524347,23.5873373 C17.8610296,23.5873373 17.542855,23.2747182 17.542855,22.8878584 L17.542855,2.10853745 C17.542855,0.946442919 16.6014625,-1.42108547e-14 15.4322974,-1.42108547e-14 C14.2646475,-1.42108547e-14 13.3232549,0.946442919 13.3232549,2.10853745 L13.3232549,22.8878584 C13.3232549,23.2747182 13.0065955,23.5873373 12.6146854,23.5873373 C12.2318659,23.5873373 11.9147014,23.2747182 11.9147014,22.8878584 L11.9147014,4.92816969 C11.9147014,3.75950965 10.9662383,2.81811712 9.80515389,2.81811712 C8.63750393,2.81811712 7.6961114,3.75900461 7.6961114,4.92816969 L7.6961114,29.9255756 L4.84264155,26.0206148 C3.99771145,24.7236748 2.34825437,24.283786 1.13868618,25.0342738 C-0.0648215448,25.7938523 -0.359764269,27.4579555 0.472539856,28.7569156 C0.472539856,28.7569156 5.06940402,35.7118064 7.02946004,38.6880007 C8.06229352,40.2608274 8.65923155,41.7931832 9.80515389,44.7931832 C10.5691021,46.7931832 13.0286836,47.4805201 17.1838983,46.855194 C22.1150143,48.6170548 24.5805723,48.6170548 24.5805723,46.855194 C24.5805723,45.8510306 25.4669481,45.5004368 26.6906248,41.8210127 C27.9143016,38.1415886 28.8078396,34.9741207 28.8078396,34.1446707 L28.8078396,7.73770115 C28.808253,6.57560662 27.8587798,5.62764858 26.6906248,5.62764858 Z" id="Path" fill="#CC8162" fill-rule="nonzero"></path>
            <polygon id="Rectangle" fill="#FFFFFF" points="8.00001485 44.7931832 26.3677818 45.0836247 26.0000148 50.7931832 8.00001485 50.7931832"></polygon>
            <rect id="Rectangle" fill="#C90035" x="5.80776301" y="50.7931832" width="23" height="31"></rect>
        </g>
        <g id="Group-Copy-3" transform="translate(96.000000, 7.000000)">
            <path d="M26.6906248,5.62764858 C25.5285303,5.62764858 24.5805723,6.57560662 24.5805723,7.73770115 L24.5805723,24.2984321 C24.5805723,24.6802415 24.265933,24.997911 23.8810934,24.997911 C23.4876681,24.997911 23.1715137,24.6802415 23.1715137,24.2984321 L23.1715137,3.51961617 C23.1715137,2.35045109 22.2301212,1.40905856 21.0619662,1.40905856 C19.8998716,1.40905856 18.9534287,2.34994605 18.9534287,3.51961617 L18.9534287,22.8878584 C18.9534287,23.2747182 18.6352542,23.5873373 18.2524347,23.5873373 C17.8610296,23.5873373 17.542855,23.2747182 17.542855,22.8878584 L17.542855,2.10853745 C17.542855,0.946442919 16.6014625,-1.42108547e-14 15.4322974,-1.42108547e-14 C14.2646475,-1.42108547e-14 13.3232549,0.946442919 13.3232549,2.10853745 L13.3232549,22.8878584 C13.3232549,23.2747182 13.0065955,23.5873373 12.6146854,23.5873373 C12.2318659,23.5873373 11.9147014,23.2747182 11.9147014,22.8878584 L11.9147014,4.92816969 C11.9147014,3.75950965 10.9662383,2.81811712 9.80515389,2.81811712 C8.63750393,2.81811712 7.6961114,3.75900461 7.6961114,4.92816969 L7.6961114,29.9255756 L4.84264155,26.0206148 C3.99771145,24.7236748 2.34825437,24.283786 1.13868618,25.0342738 C-0.0648215448,25.7938523 -0.359764269,27.4579555 0.472539856,28.7569156 C0.472539856,28.7569156 5.06940402,35.7118064 7.02946004,38.6880007 C8.06229352,40.2608274 8.65923155,41.7931832 9.80515389,44.7931832 C10.5691021,46.7931832 13.0286836,47.4805201 17.1838983,46.855194 C22.1150143,48.6170548 24.5805723,48.6170548 24.5805723,46.855194 C24.5805723,45.8510306 25.4669481,45.5004368 26.6906248,41.8210127 C27.9143016,38.1415886 28.8078396,34.9741207 28.8078396,34.1446707 L28.8078396,7.73770115 C28.808253,6.57560662 27.8587798,5.62764858 26.6906248,5.62764858 Z" id="Path" fill="#975B43" fill-rule="nonzero"></path>
            <polygon id="Rectangle" fill="#FFFFFF" points="8.00001485 44.7931832 26.3677818 45.0836247 26.0000148 50.7931832 8.00001485 50.7931832"></polygon>
            <rect id="Rectangle" fill="#FF5627" x="5.80776301" y="50.7931832" width="23" height="42"></rect>
        </g>
        <g id="Group-Copy-7" transform="translate(256.000000, 18.000000)">
            <path d="M26.6906248,5.62764858 C25.5285303,5.62764858 24.5805723,6.57560662 24.5805723,7.73770115 L24.5805723,24.2984321 C24.5805723,24.6802415 24.265933,24.997911 23.8810934,24.997911 C23.4876681,24.997911 23.1715137,24.6802415 23.1715137,24.2984321 L23.1715137,3.51961617 C23.1715137,2.35045109 22.2301212,1.40905856 21.0619662,1.40905856 C19.8998716,1.40905856 18.9534287,2.34994605 18.9534287,3.51961617 L18.9534287,22.8878584 C18.9534287,23.2747182 18.6352542,23.5873373 18.2524347,23.5873373 C17.8610296,23.5873373 17.542855,23.2747182 17.542855,22.8878584 L17.542855,2.10853745 C17.542855,0.946442919 16.6014625,-1.42108547e-14 15.4322974,-1.42108547e-14 C14.2646475,-1.42108547e-14 13.3232549,0.946442919 13.3232549,2.10853745 L13.3232549,22.8878584 C13.3232549,23.2747182 13.0065955,23.5873373 12.6146854,23.5873373 C12.2318659,23.5873373 11.9147014,23.2747182 11.9147014,22.8878584 L11.9147014,4.92816969 C11.9147014,3.75950965 10.9662383,2.81811712 9.80515389,2.81811712 C8.63750393,2.81811712 7.6961114,3.75900461 7.6961114,4.92816969 L7.6961114,29.9255756 L4.84264155,26.0206148 C3.99771145,24.7236748 2.34825437,24.283786 1.13868618,25.0342738 C-0.0648215448,25.7938523 -0.359764269,27.4579555 0.472539856,28.7569156 C0.472539856,28.7569156 5.06940402,35.7118064 7.02946004,38.6880007 C8.06229352,40.2608274 8.65923155,41.7931832 9.80515389,44.7931832 C10.5691021,46.7931832 13.0286836,47.4805201 17.1838983,46.855194 C22.1150143,48.6170548 24.5805723,48.6170548 24.5805723,46.855194 C24.5805723,45.8510306 25.4669481,45.5004368 26.6906248,41.8210127 C27.9143016,38.1415886 28.8078396,34.9741207 28.8078396,34.1446707 L28.8078396,7.73770115 C28.808253,6.57560662 27.8587798,5.62764858 26.6906248,5.62764858 Z" id="Path" fill="#825036" fill-rule="nonzero"></path>
            <polygon id="Rectangle" fill="#FFFFFF" points="8.00001485 44.7931832 26.3677818 45.0836247 26.0000148 50.7931832 8.00001485 50.7931832"></polygon>
            <rect id="Rectangle" fill="#FF5627" x="5.80776301" y="50.7931832" width="23" height="31"></rect>
        </g>
        <g id="Group-Copy-4" transform="translate(128.000000, 18.000000)">
            <path d="M26.6906248,5.62764858 C25.5285303,5.62764858 24.5805723,6.57560662 24.5805723,7.73770115 L24.5805723,24.2984321 C24.5805723,24.6802415 24.265933,24.997911 23.8810934,24.997911 C23.4876681,24.997911 23.1715137,24.6802415 23.1715137,24.2984321 L23.1715137,3.51961617 C23.1715137,2.35045109 22.2301212,1.40905856 21.0619662,1.40905856 C19.8998716,1.40905856 18.9534287,2.34994605 18.9534287,3.51961617 L18.9534287,22.8878584 C18.9534287,23.2747182 18.6352542,23.5873373 18.2524347,23.5873373 C17.8610296,23.5873373 17.542855,23.2747182 17.542855,22.8878584 L17.542855,2.10853745 C17.542855,0.946442919 16.6014625,-1.42108547e-14 15.4322974,-1.42108547e-14 C14.2646475,-1.42108547e-14 13.3232549,0.946442919 13.3232549,2.10853745 L13.3232549,22.8878584 C13.3232549,23.2747182 13.0065955,23.5873373 12.6146854,23.5873373 C12.2318659,23.5873373 11.9147014,23.2747182 11.9147014,22.8878584 L11.9147014,4.92816969 C11.9147014,3.75950965 10.9662383,2.81811712 9.80515389,2.81811712 C8.63750393,2.81811712 7.6961114,3.75900461 7.6961114,4.92816969 L7.6961114,29.9255756 L4.84264155,26.0206148 C3.99771145,24.7236748 2.34825437,24.283786 1.13868618,25.0342738 C-0.0648215448,25.7938523 -0.359764269,27.4579555 0.472539856,28.7569156 C0.472539856,28.7569156 5.06940402,35.7118064 7.02946004,38.6880007 C8.06229352,40.2608274 8.65923155,41.7931832 9.80515389,44.7931832 C10.5691021,46.7931832 13.0286836,47.4805201 17.1838983,46.855194 C22.1150143,48.6170548 24.5805723,48.6170548 24.5805723,46.855194 C24.5805723,45.8510306 25.4669481,45.5004368 26.6906248,41.8210127 C27.9143016,38.1415886 28.8078396,34.9741207 28.8078396,34.1446707 L28.8078396,7.73770115 C28.808253,6.57560662 27.8587798,5.62764858 26.6906248,5.62764858 Z" id="Path" fill="#EDB98A" fill-rule="nonzero"></path>
            <polygon id="Rectangle" fill="#FFFFFF" points="8.00001485 44.7931832 26.3677818 45.0836247 26.0000148 50.7931832 8.00001485 50.7931832"></polygon>
            <rect id="Rectangle" fill="#FFC400" x="5.80776301" y="50.7931832" width="23" height="31"></rect>
        </g>
        <g id="Group-Copy-4" transform="translate(160.000000, 7.000000)">
            <path d="M26.6906248,5.62764858 C25.5285303,5.62764858 24.5805723,6.57560662 24.5805723,7.73770115 L24.5805723,24.2984321 C24.5805723,24.6802415 24.265933,24.997911 23.8810934,24.997911 C23.4876681,24.997911 23.1715137,24.6802415 23.1715137,24.2984321 L23.1715137,3.51961617 C23.1715137,2.35045109 22.2301212,1.40905856 21.0619662,1.40905856 C19.8998716,1.40905856 18.9534287,2.34994605 18.9534287,3.51961617 L18.9534287,22.8878584 C18.9534287,23.2747182 18.6352542,23.5873373 18.2524347,23.5873373 C17.8610296,23.5873373 17.542855,23.2747182 17.542855,22.8878584 L17.542855,2.10853745 C17.542855,0.946442919 16.6014625,-1.42108547e-14 15.4322974,-1.42108547e-14 C14.2646475,-1.42108547e-14 13.3232549,0.946442919 13.3232549,2.10853745 L13.3232549,22.8878584 C13.3232549,23.2747182 13.0065955,23.5873373 12.6146854,23.5873373 C12.2318659,23.5873373 11.9147014,23.2747182 11.9147014,22.8878584 L11.9147014,4.92816969 C11.9147014,3.75950965 10.9662383,2.81811712 9.80515389,2.81811712 C8.63750393,2.81811712 7.6961114,3.75900461 7.6961114,4.92816969 L7.6961114,29.9255756 L4.84264155,26.0206148 C3.99771145,24.7236748 2.34825437,24.283786 1.13868618,25.0342738 C-0.0648215448,25.7938523 -0.359764269,27.4579555 0.472539856,28.7569156 C0.472539856,28.7569156 5.06940402,35.7118064 7.02946004,38.6880007 C8.06229352,40.2608274 8.65923155,41.7931832 9.80515389,44.7931832 C10.5691021,46.7931832 13.0286836,47.4805201 17.1838983,46.855194 C22.1150143,48.6170548 24.5805723,48.6170548 24.5805723,46.855194 C24.5805723,45.8510306 25.4669481,45.5004368 26.6906248,41.8210127 C27.9143016,38.1415886 28.8078396,34.9741207 28.8078396,34.1446707 L28.8078396,7.73770115 C28.808253,6.57560662 27.8587798,5.62764858 26.6906248,5.62764858 Z" id="Path" fill="#825036" fill-rule="nonzero"></path>
            <polygon id="Rectangle" fill="#FFFFFF" points="8.00001485 44.7931832 26.3677818 45.0836247 26.0000148 50.7931832 8.00001485 50.7931832"></polygon>
            <rect id="Rectangle" fill="#5B1547" x="5.80776301" y="50.7931832" width="23" height="42"></rect>
        </g>
        <g id="Group-Copy-5" transform="translate(192.000000, 18.000000)">
            <path d="M26.6906248,5.62764858 C25.5285303,5.62764858 24.5805723,6.57560662 24.5805723,7.73770115 L24.5805723,24.2984321 C24.5805723,24.6802415 24.265933,24.997911 23.8810934,24.997911 C23.4876681,24.997911 23.1715137,24.6802415 23.1715137,24.2984321 L23.1715137,3.51961617 C23.1715137,2.35045109 22.2301212,1.40905856 21.0619662,1.40905856 C19.8998716,1.40905856 18.9534287,2.34994605 18.9534287,3.51961617 L18.9534287,22.8878584 C18.9534287,23.2747182 18.6352542,23.5873373 18.2524347,23.5873373 C17.8610296,23.5873373 17.542855,23.2747182 17.542855,22.8878584 L17.542855,2.10853745 C17.542855,0.946442919 16.6014625,-1.42108547e-14 15.4322974,-1.42108547e-14 C14.2646475,-1.42108547e-14 13.3232549,0.946442919 13.3232549,2.10853745 L13.3232549,22.8878584 C13.3232549,23.2747182 13.0065955,23.5873373 12.6146854,23.5873373 C12.2318659,23.5873373 11.9147014,23.2747182 11.9147014,22.8878584 L11.9147014,4.92816969 C11.9147014,3.75950965 10.9662383,2.81811712 9.80515389,2.81811712 C8.63750393,2.81811712 7.6961114,3.75900461 7.6961114,4.92816969 L7.6961114,29.9255756 L4.84264155,26.0206148 C3.99771145,24.7236748 2.34825437,24.283786 1.13868618,25.0342738 C-0.0648215448,25.7938523 -0.359764269,27.4579555 0.472539856,28.7569156 C0.472539856,28.7569156 5.06940402,35.7118064 7.02946004,38.6880007 C8.06229352,40.2608274 8.65923155,41.7931832 9.80515389,44.7931832 C10.5691021,46.7931832 13.0286836,47.4805201 17.1838983,46.855194 C22.1150143,48.6170548 24.5805723,48.6170548 24.5805723,46.855194 C24.5805723,45.8510306 25.4669481,45.5004368 26.6906248,41.8210127 C27.9143016,38.1415886 28.8078396,34.9741207 28.8078396,34.1446707 L28.8078396,7.73770115 C28.808253,6.57560662 27.8587798,5.62764858 26.6906248,5.62764858 Z" id="Path" fill="#F3C6A5" fill-rule="nonzero"></path>
            <polygon id="Rectangle" fill="#FFFFFF" points="8.00001485 44.7931832 26.3677818 45.0836247 26.0000148 50.7931832 8.00001485 50.7931832"></polygon>
            <rect id="Rectangle" fill="#92063E" x="5.80776301" y="50.7931832" width="23" height="31"></rect>
        </g>
        <g id="Group-Copy-6" transform="translate(224.000000, 7.000000)">
            <path d="M26.6906248,5.62764858 C25.5285303,5.62764858 24.5805723,6.57560662 24.5805723,7.73770115 L24.5805723,24.2984321 C24.5805723,24.6802415 24.265933,24.997911 23.8810934,24.997911 C23.4876681,24.997911 23.1715137,24.6802415 23.1715137,24.2984321 L23.1715137,3.51961617 C23.1715137,2.35045109 22.2301212,1.40905856 21.0619662,1.40905856 C19.8998716,1.40905856 18.9534287,2.34994605 18.9534287,3.51961617 L18.9534287,22.8878584 C18.9534287,23.2747182 18.6352542,23.5873373 18.2524347,23.5873373 C17.8610296,23.5873373 17.542855,23.2747182 17.542855,22.8878584 L17.542855,2.10853745 C17.542855,0.946442919 16.6014625,-1.42108547e-14 15.4322974,-1.42108547e-14 C14.2646475,-1.42108547e-14 13.3232549,0.946442919 13.3232549,2.10853745 L13.3232549,22.8878584 C13.3232549,23.2747182 13.0065955,23.5873373 12.6146854,23.5873373 C12.2318659,23.5873373 11.9147014,23.2747182 11.9147014,22.8878584 L11.9147014,4.92816969 C11.9147014,3.75950965 10.9662383,2.81811712 9.80515389,2.81811712 C8.63750393,2.81811712 7.6961114,3.75900461 7.6961114,4.92816969 L7.6961114,29.9255756 L4.84264155,26.0206148 C3.99771145,24.7236748 2.34825437,24.283786 1.13868618,25.0342738 C-0.0648215448,25.7938523 -0.359764269,27.4579555 0.472539856,28.7569156 C0.472539856,28.7569156 5.06940402,35.7118064 7.02946004,38.6880007 C8.06229352,40.2608274 8.65923155,41.7931832 9.80515389,44.7931832 C10.5691021,46.7931832 13.0286836,47.4805201 17.1838983,46.855194 C22.1150143,48.6170548 24.5805723,48.6170548 24.5805723,46.855194 C24.5805723,45.8510306 25.4669481,45.5004368 26.6906248,41.8210127 C27.9143016,38.1415886 28.8078396,34.9741207 28.8078396,34.1446707 L28.8078396,7.73770115 C28.808253,6.57560662 27.8587798,5.62764858 26.6906248,5.62764858 Z" id="Path" fill="#CC8162" fill-rule="nonzero"></path>
            <polygon id="Rectangle" fill="#FFFFFF" points="8.00001485 44.7931832 26.3677818 45.0836247 26.0000148 50.7931832 8.00001485 50.7931832"></polygon>
            <rect id="Rectangle" fill="#C90035" x="5.80776301" y="50.7931832" width="23" height="42"></rect>
        </g>
        <g id="Group-Copy-8" transform="translate(285.000000, 11.000000)">
            <path d="M26.6906248,5.62764858 C25.5285303,5.62764858 24.5805723,6.57560662 24.5805723,7.73770115 L24.5805723,24.2984321 C24.5805723,24.6802415 24.265933,24.997911 23.8810934,24.997911 C23.4876681,24.997911 23.1715137,24.6802415 23.1715137,24.2984321 L23.1715137,3.51961617 C23.1715137,2.35045109 22.2301212,1.40905856 21.0619662,1.40905856 C19.8998716,1.40905856 18.9534287,2.34994605 18.9534287,3.51961617 L18.9534287,22.8878584 C18.9534287,23.2747182 18.6352542,23.5873373 18.2524347,23.5873373 C17.8610296,23.5873373 17.542855,23.2747182 17.542855,22.8878584 L17.542855,2.10853745 C17.542855,0.946442919 16.6014625,-1.42108547e-14 15.4322974,-1.42108547e-14 C14.2646475,-1.42108547e-14 13.3232549,0.946442919 13.3232549,2.10853745 L13.3232549,22.8878584 C13.3232549,23.2747182 13.0065955,23.5873373 12.6146854,23.5873373 C12.2318659,23.5873373 11.9147014,23.2747182 11.9147014,22.8878584 L11.9147014,4.92816969 C11.9147014,3.75950965 10.9662383,2.81811712 9.80515389,2.81811712 C8.63750393,2.81811712 7.6961114,3.75900461 7.6961114,4.92816969 L7.6961114,29.9255756 L4.84264155,26.0206148 C3.99771145,24.7236748 2.34825437,24.283786 1.13868618,25.0342738 C-0.0648215448,25.7938523 -0.359764269,27.4579555 0.472539856,28.7569156 C0.472539856,28.7569156 5.06940402,35.7118064 7.02946004,38.6880007 C8.06229352,40.2608274 8.65923155,41.7931832 9.80515389,44.7931832 C10.5691021,46.7931832 13.0286836,47.4805201 17.1838983,46.855194 C22.1150143,48.6170548 24.5805723,48.6170548 24.5805723,46.855194 C24.5805723,45.8510306 25.4669481,45.5004368 26.6906248,41.8210127 C27.9143016,38.1415886 28.8078396,34.9741207 28.8078396,34.1446707 L28.8078396,7.73770115 C28.808253,6.57560662 27.8587798,5.62764858 26.6906248,5.62764858 Z" id="Path" fill="#EDB98A" fill-rule="nonzero"></path>
            <polygon id="Rectangle" fill="#FFFFFF" points="8.00001485 44.7931832 26.3677818 45.0836247 26.0000148 50.7931832 8.00001485 50.7931832"></polygon>
            <rect id="Rectangle" fill="#FFC400" x="5.80776301" y="50.7931832" width="23" height="38"></rect>
        </g>
    </g>
</svg>